<?xml version="1.0" encoding="UTF-8"?>
<svg id="Calque_1" data-name="Calque 1" xmlns="http://www.w3.org/2000/svg" version="1.1" viewBox="0 0 423.99 189.69">
  <defs>
    <style>
      .cls-1 {
        fill: #002e5d;
      }

      .cls-1, .cls-2, .cls-3, .cls-4 {
        stroke-width: 0px;
      }

      .cls-2 {
        fill: #c6a828;
      }

      .cls-3 {
        fill: #ee7402;
      }

      .cls-4 {
        fill: #32848a;
      }
    </style>
  </defs>
  <path class="cls-1" d="M97.26,87.6c-9.72-.64-19.78-4.11-26.26-15.05-4.5-7.59-4.38-18.83-4.38-18.83l21.67-10.38s-4.36,12.91-1.27,24.95c2.78,10.85,10.24,13.49,10.24,13.49v5.82Z"/>
  <g>
    <g>
      <g>
        <g>
          <path class="cls-1" d="M117.58,129.4c-12.07,0-21-8.55-21-21.77s8.55-21.69,21-21.69,20.47,8.32,20.47,20.7c0,1.45-.08,2.83-.31,4.28h-32.15c.61,6.95,5.58,11.15,11.99,11.15,5.35,0,8.32-2.6,9.93-5.88h9.39c-2.37,7.33-9.01,13.21-19.32,13.21M105.67,103.89h23.29c-.15-6.49-5.27-10.62-11.76-10.62-5.88,0-10.62,3.97-11.53,10.62"/>
          <path class="cls-1" d="M184.71,128.71h-8.71v-5.04c-2.75,3.59-7.48,5.65-12.45,5.65-9.85,0-17.34-6.19-17.34-17.95v-24.74h8.63v23.45c0,7.71,4.2,11.69,10.54,11.69s10.62-3.97,10.62-11.69v-23.45h8.71v42.08Z"/>
          <path class="cls-1" d="M204.59,128.71h-8.71v-42.08h8.71v6.11c2.44-4.2,6.64-6.8,12.6-6.8v9.01h-2.22c-6.41,0-10.39,2.67-10.39,11.61v22.15Z"/>
          <path class="cls-1" d="M286.9,85.94c7.1,0,11.99,3.36,14.59,6.8v-6.11h8.78v42.08h-8.78v-6.26c-2.67,3.59-7.71,6.95-14.74,6.95-10.92,0-19.7-8.94-19.7-21.92s8.78-21.54,19.86-21.54M288.73,93.5c-6.49,0-12.75,4.89-12.75,13.98s6.26,14.36,12.75,14.36,12.75-5.12,12.75-14.2-6.19-14.13-12.75-14.13"/>
          <rect class="cls-1" x="321.72" y="61.77" width="8.71" height="66.94"/>
          <path class="cls-1" d="M359.99,129.4c-12.07,0-21-8.55-21-21.77s8.55-21.69,21-21.69,20.47,8.32,20.47,20.7c0,1.45-.08,2.83-.3,4.28h-32.15c.61,6.95,5.57,11.15,11.99,11.15,5.35,0,8.32-2.6,9.93-5.88h9.39c-2.37,7.33-9.01,13.21-19.32,13.21M348.07,103.89h23.29c-.15-6.49-5.27-10.62-11.76-10.62-5.88,0-10.62,3.97-11.53,10.62"/>
        </g>
        <polygon class="cls-1" points="265.66 86.63 256.64 86.63 244.35 118.71 232.51 86.63 222.81 86.63 239.38 128.02 231.88 146.28 240.88 146.28 265.66 86.63"/>
      </g>
      <path class="cls-2" d="M60.91,136.01s20.25,1.31,28.47-15.02c3.53,9.82,2.15,18.51-10.57,22.76-.16.05-17.9-7.74-17.9-7.74"/>
      <path class="cls-4" d="M73.05,102.65c14.82-.9,18.74-7.88,18.74-7.88,0,0-13.05,1.35-24.17-7.76-7.55-6.19-11.02-16.34-11.97-21.74l-12.2,19.67c4.46,9.6,15.82,18.55,29.59,17.71Z"/>
    </g>
    <path class="cls-3" d="M62.05,113.41c-8.41-1.13-14.11-8.19-17.21-11.87l2.12,20.88c8.94,5.4,28.42,8.99,42.25-15.29-6.68,5.18-15.71,7.82-27.17,6.28Z"/>
  </g>
</svg>
