<svg width="137" height="24" viewBox="0 0 137 24" fill="none" xmlns="http://www.w3.org/2000/svg">
<path d="M107.746 17.0018C106.722 17.0018 105.722 16.7044 104.870 16.1472C104.019 15.59 103.356 14.7981 102.964 13.8715C102.572 12.9449 102.470 11.9253 102.669 10.9417C102.869 9.95802 103.362 9.05448 104.086 8.34531C104.810 7.63613 105.732 7.15318 106.736 6.95752C107.740 6.76186 108.781 6.86228 109.727 7.24608C110.673 7.62988 111.481 8.27983 112.050 9.11373C112.619 9.94763 112.922 10.928 112.922 11.931C112.920 13.2751 112.374 14.5636 111.404 15.514C110.433 16.4645 109.118 16.9995 107.746 17.0018V17.0018ZM107.746 3.61893e-07C105.337 -0.000580738 102.982 0.698664 100.979 2.0093C98.9759 3.31994 97.4145 5.1831 96.4922 7.36314C95.5700 9.54319 95.3284 11.9422 95.7980 14.2568C96.2676 16.5713 97.4272 18.6975 99.1303 20.3664C100.833 22.0352 103.003 23.1719 105.366 23.6324C107.729 24.093 110.177 23.8569 112.403 22.954C114.629 22.0511 116.531 20.5218 117.869 18.5597C119.207 16.5976 119.922 14.2908 119.922 11.931C119.922 8.76718 118.639 5.73294 116.356 3.49554C114.072 1.25813 110.976 0.000779426 107.746 3.61893e-07" fill="#00CE7E"/>
<path d="M27.9773 11.1989C27.4195 11.6895 26.5828 11.9304 25.4702 11.9304H22.4922V6.34834H25.4912C26.6028 6.34834 27.4385 6.59317 27.9983 7.08282C28.2806 7.34627 28.5014 7.66653 28.6453 8.02155C28.7892 8.37658 28.8529 8.75793 28.8320 9.13938C28.8529 9.52082 28.7892 9.90218 28.6453 10.2572C28.5014 10.6122 28.2806 10.9325 27.9983 11.1959L27.9773 11.1989ZM32.5207 16.6311C33.9168 15.9512 35.0907 14.9019 35.9095 13.6021C36.7193 12.25 37.1285 10.7036 37.0911 9.13644C37.1285 7.44908 36.6569 5.7884 35.7356 4.36229C34.7917 2.96712 33.4478 1.87648 31.8729 1.22752C30.0126 0.463281 28.0087 0.0918787 25.9920 0.137543H14.2661V23.9965H22.4922V18.0002H24.7204L28.8470 23.9965H37.6159L32.5207 16.6311Z" fill="#00CE7E"/>
<path d="M8.21111 0.138672H0V23.9976H8.21111V0.138672Z" fill="#00CE7E"/>
<path d="M54.1158 17.1405C53.0912 17.1411 52.0894 16.8439 51.2373 16.2866C50.3851 15.7293 49.7208 14.937 49.3284 14.0097C48.9361 13.0825 48.8333 12.0621 49.0330 11.0776C49.2327 10.0931 49.7261 9.18873 50.4506 8.47896C51.1751 7.7692 52.0982 7.28591 53.1031 7.09023C54.1081 6.89455 55.1497 6.99527 56.0962 7.37966C57.0427 7.76405 57.8515 8.41483 58.4204 9.24966C58.9892 10.0845 59.2926 11.0659 59.2920 12.0696C59.2904 13.414 58.7445 14.7029 57.7742 15.6536C56.8038 16.6042 55.4881 17.139 54.1158 17.1405V17.1405ZM54.1158 0.138672C51.7069 0.138091 49.3520 0.837336 47.3489 2.14797C45.3457 3.45861 43.7842 5.32177 42.8620 7.50181C41.9398 9.68186 41.6982 12.0809 42.1677 14.3954C42.6373 16.71 43.7970 18.8362 45.5001 20.5051C47.2032 22.1739 49.3732 23.3105 51.7357 23.7711C54.0983 24.2317 56.5472 23.9956 58.7727 23.0927C60.9982 22.1897 62.9005 20.6605 64.2388 18.6984C65.5772 16.7363 66.2915 14.4295 66.2915 12.0696C66.2915 8.90585 65.0088 5.87161 62.7255 3.63421C60.4422 1.3968 57.3453 0.139451 54.1158 0.138672" fill="#00CE7E"/>
<path d="M95.3694 23.9976H85.8717L79.7809 16.0917L77.9365 18.1012V23.9976H71.1379V0.138672H77.9365V8.79383L85.9377 0.138672H94.8836L85.1400 10.6389L95.3694 23.9976Z" fill="#00CE7E"/>
<path d="M136.5 12.0689C136.5 13.0726 136.196 14.0537 135.627 14.8881C135.057 15.7225 134.248 16.3729 133.302 16.7568C132.355 17.1407 131.314 17.2411 130.309 17.045C129.304 16.849 128.381 16.3655 127.657 15.6556C126.933 14.9457 126.440 14.0414 126.241 13.057C126.041 12.0726 126.144 11.0523 126.536 10.1252C126.929 9.19817 127.593 8.40595 128.445 7.84878C129.297 7.29162 130.299 6.99454 131.324 6.99512C132.004 6.99512 132.677 7.12638 133.305 7.3814C133.933 7.63642 134.504 8.0102 134.985 8.48138C135.465 8.95257 135.847 9.51192 136.107 10.1275C136.367 10.7431 136.5 11.4028 136.5 12.0689" fill="#00CE7E"/>
</svg>
