<svg xmlns="http://www.w3.org/2000/svg" width="167.883" height="34.232" viewBox="0 0 167.883 34.232">
  <g id="Groupe_466" data-name="Groupe 466" transform="translate(-565.028 -459.463)">
    <path id="Tracé_239" data-name="Tracé 239" d="M581.142,506.548l-.326,5.915h-1.351c-5.682,0-8.290,3.493-8.290,9.967v7.5h-6.148v-23.240h6.148v4.238a9.771,9.771,0,0,1,8.337-4.564A4.754,4.754,0,0,1,581.142,506.548Z" transform="translate(0 -36.932)"/>
    <path id="Tracé_240" data-name="Tracé 240" d="M672.986,518.58h-17.7c.605,3.353,2.981,5.4,5.822,5.4a5.937,5.937,0,0,0,5.775-3.074l5.5,1.164c-2.050,4.844-6.195,7.173-11.271,7.173-6.567,0-11.923-4.984-11.923-12.3s5.356-12.342,12.016-12.342c6.194,0,11.551,4.8,11.784,11.876Zm-17.512-4.332H666.7a5.410,5.410,0,0,0-5.5-4.285A5.834,5.834,0,0,0,655.474,514.249Z" transform="translate(-66.273 -35.55)"/>
    <path id="Tracé_241" data-name="Tracé 241" d="M821.331,514.016v14.531h-6.1V515.273c0-3.121-2-5.030-4.565-5.030-3.260,0-5.4,2.236-5.4,7.126v11.178h-6.148V515.273c0-3.121-2-5.030-4.565-5.030-3.260,0-5.309,2.236-5.309,7.126v11.178h-6.148v-23.240h6.148v1.910a9.413,9.413,0,0,1,6.940-2.608,9.052,9.052,0,0,1,7.638,3.819,10.414,10.414,0,0,1,8.477-3.819A9.017,9.017,0,0,1,821.331,514.016Z" transform="translate(-171.721 -35.55)"/>
    <path id="Tracé_242" data-name="Tracé 242" d="M1266.788,518.58h-17.7c.606,3.353,2.981,5.4,5.822,5.4a5.937,5.937,0,0,0,5.775-3.074l5.5,1.164c-2.049,4.844-6.194,7.173-11.271,7.173-6.567,0-11.923-4.984-11.923-12.3s5.356-12.342,12.016-12.342c6.195,0,11.551,4.8,11.784,11.876Zm-17.512-4.332H1260.5a5.410,5.410,0,0,0-5.5-4.285A5.834,5.834,0,0,0,1249.276,514.249Z" transform="translate(-533.877 -35.55)"/>
    <g id="Groupe_465" data-name="Groupe 465" transform="translate(682.309 459.463)">
      <path id="Tracé_243" data-name="Tracé 243" d="M1194.762,577.779v3.572h6.147v-9.688l-.621.618Z" transform="translate(-1178.209 -547.817)"/>
      <path id="Tracé_244" data-name="Tracé 244" d="M1194.762,459.463v13.870l5.527,5.5.621.618V459.463Z" transform="translate(-1178.209 -459.463)"/>
      <path id="Tracé_245" data-name="Tracé 245" d="M1136.42,519.528l-2.993-2.977-8.687-8.643h-7.866l11.933,11.620-11.933,11.620h7.866l8.687-8.643Z" transform="translate(-1116.875 -497.612)"/>
    </g>
    <path id="Tracé_246" data-name="Tracé 246" d="M1007.555,528.547h-6.148v-1.816a11.900,11.900,0,0,1-7.685,2.515c-5.915,0-11.411-4.984-11.411-12.3s5.5-12.342,11.411-12.342a11.664,11.664,0,0,1,7.685,2.562v-1.863h6.148Zm-6.148-11.600a6.755,6.755,0,0,0-6.614-6.986c-3.726,0-6.520,2.700-6.520,6.986s2.794,6.940,6.520,6.940A6.713,6.713,0,0,0,1001.407,516.950Z" transform="translate(-328.601 -35.55)"/>
  </g>
</svg>
