<svg width="300" height="300" viewBox="0 0 300 300" fill="none" xmlns="http://www.w3.org/2000/svg">
    <rect width="300" height="300" rx="6.54" fill="black"/>
    <g clip-path="url(#clip0_3929_169175)">
    <path fill-rule="evenodd" clip-rule="evenodd" d="M41 167.391V252.46C41 256.072 43.9279 259 47.5396 259H132.609C85.5854 251.556 48.4436 214.415 41 167.391ZM167.391 259H252.46C256.072 259 259 256.072 259 252.46V167.391C251.556 214.415 214.415 251.556 167.391 259ZM259 132.609V47.5396C259 43.9279 256.072 41 252.46 41L167.391 41C214.415 48.4436 251.556 85.5854 259 132.609ZM132.609 41L47.5396 41C43.9279 41 41 43.9279 41 47.5396V132.609C48.4436 85.5854 85.5854 48.4436 132.609 41Z" fill="#DFFFB3"/>
    <path fill-rule="evenodd" clip-rule="evenodd" d="M95.5 150C125.6 150 150 125.6 150 95.5C150 125.6 174.4 150 204.5 150C174.4 150 150 174.4 150 204.5C150 174.4 125.6 150 95.5 150Z" fill="#DFFFB3"/>
    </g>
    <defs>
    <clipPath id="clip0_3929_169175">
    <rect width="218" height="218" fill="white" transform="translate(41 41)"/>
    </clipPath>
    </defs>
</svg>
