<svg width="157" height="26" viewBox="0 0 157 26" fill="none" xmlns="http://www.w3.org/2000/svg">
<path d="M16.3231 5.68093C14.6698 5.68093 13.0538 6.17119 11.6791 7.08973C10.3044 8.00828 9.2328 9.31383 8.6001 10.8413C7.9674 12.3688 7.80198 14.0496 8.12453 15.6711C8.44707 17.2927 9.24305 18.7822 10.4121 19.9513C11.5812 21.1204 13.0707 21.9165 14.6923 22.2391C16.3139 22.5616 17.9948 22.3961 19.5223 21.7634C21.0497 21.1307 22.3553 20.0592 23.2738 18.6845C24.1924 17.3098 24.6826 15.6936 24.6826 14.0403C24.7036 12.9368 24.5017 11.8403 24.089 10.8167C23.6763 9.79298 23.0614 8.86307 22.281 8.08262C21.5005 7.30216 20.5705 6.68719 19.5468 6.27452C18.5231 5.86184 17.4266 5.65995 16.3231 5.68093V5.68093ZM16.3231 18.442C13.9919 18.442 12.1869 16.6948 12.1869 14.0403C12.1869 11.3858 13.9919 9.64342 16.3231 9.64342C18.6543 9.64342 20.4595 11.4195 20.4595 14.0403C20.4595 16.6611 18.6543 18.442 16.3231 18.442Z" fill="#4377F9"/>
<path d="M51.6573 17.5343L48.105 6.03296H43.6792L49.1813 22.0519H54.1622L59.6692 6.03296H55.2385L51.6573 17.5343Z" fill="#4377F9"/>
<path d="M37.4723 15.1839C37.4723 17.4716 36.0725 18.4417 34.2674 18.4417C32.4623 18.4417 31.0626 17.4764 31.0626 15.1839V6.01367H26.8975V15.5266C26.8975 19.6773 30.1457 22.3801 34.2674 22.3801C38.3892 22.3801 41.6374 19.6773 41.6374 15.5266V6.03297H37.4723V15.1839Z" fill="#4377F9"/>
<path d="M68.0624 5.68066C63.1684 5.68066 59.7031 9.26671 59.7031 14.069C59.7031 18.8713 63.1395 22.3994 68.1494 22.3994C71.5858 22.3994 74.7905 20.7391 75.9827 16.9552H71.6919C71.1369 18.2342 69.7614 18.963 68.1397 18.963C65.9823 18.963 64.235 17.684 63.9743 15.1019H76.2626C76.6536 9.84587 73.3618 5.68066 68.0624 5.68066ZM68.0334 9.12191C68.9182 9.09003 69.7858 9.37261 70.482 9.91952C71.1782 10.4664 71.6581 11.2423 71.8366 12.1095H64.1483C64.684 10.3575 65.9629 9.12191 68.0334 9.12191V9.12191Z" fill="#4377F9"/>
<path d="M8.30627 22.0375C5.35732 22.0375 4.1701 20.7102 4.1701 17.6937V0H0V18.4177C0 23.5192 3.14685 26 7.37964 26C7.86375 25.9923 8.3471 25.9585 8.82757 25.8986V22.0375H8.30627Z" fill="#4377F9"/>
<path d="M128.741 17.1436C127.828 19.1321 125.975 20.2276 123.518 20.2276C120.14 20.2276 117.804 18.0895 117.572 14.7834V14.7062H131.419C131.506 12.0179 130.69 9.64329 129.122 8.00713C128.378 7.2535 127.486 6.66107 126.503 6.26668C125.52 5.87228 124.466 5.68435 123.407 5.71457C118.668 5.71457 115.227 9.24269 115.227 14.1029C115.227 18.9631 118.605 22.3706 123.431 22.3706C128.929 22.3706 130.724 18.215 131.096 17.1436H128.741ZM117.688 12.4716C117.935 11.1491 118.645 9.95817 119.692 9.11316C120.739 8.26814 122.053 7.82458 123.398 7.86234C126.24 7.86234 128.35 9.62881 128.905 12.4716V12.5585H117.649L117.688 12.4716Z" fill="#0C1B33"/>
<path d="M82.7685 6.03833H80.4614V22.0476H82.7685V6.03833Z" fill="#0C1B33"/>
<path d="M95.1485 11.2171L98.971 22.0476H101.524L97.3927 10.4256C96.9359 9.14312 96.0938 8.03322 94.9818 7.24785C93.8699 6.46247 92.5424 6.04002 91.181 6.03833H86.6152V22.0476H88.9224V8.22953H90.935C91.86 8.23086 92.7617 8.51886 93.5162 9.05388C94.2708 9.5889 94.8411 10.3446 95.1485 11.2171V11.2171Z" fill="#0C1B33"/>
<path d="M112.094 6.03833L107.055 19.5379L102.012 6.03833H99.6274L105.598 22.0476H108.513L114.483 6.03833H112.094Z" fill="#0C1B33"/>
<path d="M141.004 22.3709C145.015 22.3709 147.602 20.4644 147.602 17.5107C147.602 14.5569 145.126 13.9005 141.019 12.8821C137.853 12.0809 136.409 11.7189 136.409 10.3434C136.409 8.85203 138.065 7.89157 140.623 7.89157C142.939 7.89157 144.421 8.67345 145.02 10.2131H147.346C146.67 7.35101 144.204 5.71484 140.565 5.71484C136.631 5.71484 134.088 7.60198 134.088 10.5413C134.088 13.1669 136.018 13.9198 140.435 15.025L141.023 15.1698C143.659 15.8166 145.251 16.2027 145.251 17.7375C145.251 19.2723 143.625 20.2231 141.004 20.2231C137.838 20.2231 136.274 19.335 135.637 17.168H133.282C133.953 20.4162 136.848 22.3709 141.004 22.3709Z" fill="#0C1B33"/>
<path d="M154.634 22.3996C155.238 22.3996 155.99 22.3273 156.212 22.3079V20.2181H155.334C153.23 20.2181 152.438 19.3204 152.438 16.912V8.1858H156.208V6.03804H152.438V1.979H150.146V17.5829C150.15 20.7828 151.661 22.3996 154.634 22.3996Z" fill="#0C1B33"/>
</svg>
